<?xml version="1.0" standalone="no"?>
<!DOCTYPE svg PUBLIC "-//W3C//DTD SVG 20010904//EN"
 "http://www.w3.org/TR/2001/REC-SVG-20010904/DTD/svg10.dtd">
<svg version="1.0" xmlns="http://www.w3.org/2000/svg"
 width="216.000000pt" height="216.000000pt" viewBox="0 0 216.000000 216.000000"
 preserveAspectRatio="xMidYMid meet">
<metadata>
Created by potrace 1.11, written by Peter Selinger 2001-2013
</metadata>
<g transform="translate(0.000000,216.000000) scale(0.100000,-0.100000)"
fill="#000000" stroke="none">
<path d="M0 916 l0 -916 1080 0 1080 0 0 910 0 909 -162 3 c-90 2 -576 4
-1080 6 l-918 4 0 -916z m683 740 c41 -8 93 -24 114 -34 51 -27 148 -126 175
-178 30 -61 21 -74 -54 -75 -128 -3 -151 1 -188 32 -60 50 -118 72 -176 65
-103 -12 -168 -56 -205 -138 -20 -47 -23 -73 -27 -221 -5 -213 2 -242 77 -317
80 -79 156 -98 258 -64 88 29 152 114 153 202 0 55 -26 82 -79 82 -21 0 -52 3
-70 6 l-31 6 3 82 2 81 169 3 c119 2 173 -1 183 -9 11 -10 13 -39 8 -158 -3
-80 -11 -162 -16 -181 -23 -78 -79 -167 -99 -155 -5 3 -10 -3 -10 -14 0 -11
-5 -23 -10 -26 -6 -3 -10 -1 -10 4 0 19 -22 12 -27 -9 -6 -23 -23 -27 -23 -5
0 8 -4 15 -10 15 -5 0 -9 -3 -9 -7 4 -22 -4 -33 -37 -52 -19 -12 -42 -21 -50
-21 -8 0 -14 -9 -14 -21 0 -12 -5 -19 -12 -16 -7 2 -13 10 -13 18 0 9 -9 13
-24 11 -19 -3 -23 0 -19 16 3 11 2 26 -3 33 -7 12 -9 11 -10 -1 -1 -8 0 -23 0
-33 1 -9 -6 -20 -16 -23 -10 -3 -26 -10 -37 -15 -25 -14 -72 6 -80 34 -6 21
-7 21 -22 -6 -8 -15 -19 -25 -25 -21 -7 4 -6 10 1 19 8 10 4 15 -19 23 -16 6
-32 8 -35 5 -3 -3 -12 -1 -19 5 -8 7 -17 9 -20 6 -12 -13 -103 94 -134 157
-46 96 -53 150 -50 374 3 178 6 206 25 255 41 103 126 190 241 246 69 33 166
40 274 20z m851 -6 c11 -11 8 -152 -3 -163 -4 -4 -39 -10 -77 -14 -58 -5 -73
-2 -93 14 -20 16 -23 28 -25 93 l-1 75 62 0 c34 0 65 4 69 8 9 9 54 0 68 -13z
m397 10 c61 0 77 -25 68 -105 -9 -89 -13 -93 -106 -87 -43 2 -84 9 -90 14 -9
7 -13 38 -13 90 0 72 2 79 23 88 12 5 35 7 51 5 16 -3 46 -5 67 -5z m-166
-356 c105 -29 203 -128 226 -229 7 -33 10 -103 7 -186 -4 -110 -8 -141 -25
-174 -24 -45 -65 -87 -81 -83 -5 2 -9 0 -8 -4 0 -4 -9 -15 -22 -23 -12 -9 -20
-20 -17 -25 3 -5 -9 -5 -27 0 -30 9 -51 2 -70 -24 -3 -5 -14 -1 -23 8 -13 12
-21 14 -28 7 -17 -17 -58 -13 -73 7 -10 13 -16 14 -22 4 -6 -8 -23 -10 -58 -6
-27 4 -58 7 -69 8 -36 2 -99 85 -124 162 -18 55 -20 315 -4 369 16 50 101 138
168 173 79 41 145 45 250 16z"/>
<path d="M1580 1118 c-66 -34 -79 -64 -81 -190 -1 -148 25 -191 136 -223 53
-16 63 -15 123 12 53 24 79 90 75 195 -4 114 -23 162 -81 199 -57 36 -110 38
-172 7z"/>
</g>
</svg>
